<?xml version="1.0" encoding="utf-8"?>
<!-- Generator: Adobe Illustrator 16.0.3, SVG Export Plug-In . SVG Version: 6.00 Build 0)  -->
<!DOCTYPE svg PUBLIC "-//W3C//DTD SVG 1.1//EN" "http://www.w3.org/Graphics/SVG/1.1/DTD/svg11.dtd">
<svg version="1.1" id="Layer_1" xmlns="http://www.w3.org/2000/svg" xmlns:xlink="http://www.w3.org/1999/xlink" x="0px" y="0px"
	 width="13px" height="54.462px" viewBox="0 0 13 54.462" enable-background="new 0 0 13 54.462" xml:space="preserve">
<path fill="#FFFFFF" d="M12.887,1.021c0-0.122,0-0.244,0-0.366C8.591-1.612,4.296,2.921,0,0.654c0,3.149,0,6.297,0,9.447
	c3.943,2.08,7.885-1.567,11.828-0.429v8.752H13V1.021H12.887z"/>
<path fill="#666666" d="M12.887,36.896c0-0.121,0-0.244,0-0.365C8.591,34.263,4.296,38.796,0,36.528c0,3.15,0,6.298,0,9.447
	c3.943,2.08,7.885-1.567,11.828-0.429v8.752H13V36.896H12.887z"/>
</svg>
