<?xml version="1.0" encoding="utf-8"?>
<!-- Generator: Adobe Illustrator 16.0.3, SVG Export Plug-In . SVG Version: 6.00 Build 0)  -->
<!DOCTYPE svg PUBLIC "-//W3C//DTD SVG 1.1//EN" "http://www.w3.org/Graphics/SVG/1.1/DTD/svg11.dtd">
<svg version="1.1" id="Isolation_Mode" xmlns="http://www.w3.org/2000/svg" xmlns:xlink="http://www.w3.org/1999/xlink" x="0px"
	 y="0px" width="638.444px" height="29.836px" viewBox="0 0 638.444 29.836" enable-background="new 0 0 638.444 29.836"
	 xml:space="preserve">
<path fill="#B7C3C3" d="M86.962,11.38c4.792-0.84,10.302-1.677,15.094-0.24c4.192-1.798,9.821-0.958,14.014,0.24
	c5.629-0.6,11.499-1.079,17.249-0.48l0.958-1.797l0.719,0.958l1.557-1.916c-0.24,1.437,1.079,1.077,1.676,1.916
	c0.358-0.238,0.358-0.719,0.718-0.958c1.558,0.839,3.115,0.839,4.433,0.72c-0.24,0.837-0.24,2.035,0.957,1.796
	c5.51-0.719,11.979-1.916,17.249,0c3.954-1.677,9.344-1.08,13.657-0.479l-0.241,0.24c5.03-0.6,10.9-0.12,16.172,0.478l-0.24,0.24
	c2.635,0.36,5.75,0.479,7.905-0.958V9.342l1.438,1.558l1.078-1.077c0,0.479,0.479,0.717,0.718,1.077l1.437-1.797
	c0.839,1.918,3.353,1.797,5.39,1.797c1.557-2.754,0.958-6.707,3.713-8.384c0.48,3.114-4.072,8.384,0.241,9.822
	c7.067,2.635,15.093,0.718,22.758,1.917c2.995,2.156,6.589,0,10.301,1.077l6.948,0.96v0.478H264.6l-0.239-0.958
	c0.719,0.239,0.719-0.48,1.079-0.719l0.958,0.958l0.717-0.719c0.84-0.598,0.359,1.318,1.438,1.678
	c1.198-0.479-0.24-2.156,1.318-2.156c1.437,0.719,2.515,2.276,4.671,1.676c1.079-2.515,0.6-6.827,3.115-8.624
	c-0.358,2.395-1.199,6.109-1.199,8.863l7.188,2.756c-0.599,0.119-1.438-0.12-1.556,0.718c5.747-1.078,12.098-1.078,18.325-0.958
	c8.866-3.354,18.926-1.675,28.268-3.712c5.153,1.317,9.943-1.318,14.376-2.517l-1.079-0.238c1.437,0.238,1.916-2.635,2.995-0.241
	l0.477-1.197l1.44,1.676c0.956-0.718-0.241-2.035,1.076-2.754c1.079,0.359,2.155,2.516,3.354,1.079l0.601-0.48
	c-0.242-2.875-2.995-5.51-1.317-8.146c0.598,2.517,2.995,5.511,1.796,8.146l11.26,1.198c-1.916,1.318-5.75-0.479-8.864-0.24
	l-2.396,0.48c1.079,1.078,2.274,1.198,2.158,3.235c7.664-2.037,16.886-5.511,25.393-2.755c5.632-0.48,11.856-1.796,17.486-0.241
	l-2.993,0.479c7.066,1.078,14.013-1.077,20.723,1.199c0,0.599-2.397,0-3.475,0.599c5.269,0.599,11.739-0.359,17.009,0.719
	c2.396-3.114-1.318-7.427,0.24-10.662c2.156,2.875,0.837,7.786,3.951,10.182l0.48-1.317l3.474,2.036
	c-0.239-0.121-0.36,0.119-0.48,0.239c0.601,0.718,1.917,0.718,2.997,0.718c-0.719-2.396,2.158-0.599,2.993-1.438h0.958l-0.479,1.678
	l18.207,0.959l-2.515,0.717c7.066,0.839,14.613-1.437,21.921,0c-0.839,1.198-3.715-0.24-3.354,1.317
	c7.308,0.838,13.775-2.754,20.602-0.719c0.122,0.359-2.873,0-2.395,1.199c4.189-0.48,8.146-1.079,12.336-1.797l-1.554-0.717
	c1.315-1.677,4.069-0.24,4.911-2.396l2.513,2.396c0.959-0.359,0.119-0.959,0-1.439c3.954,2.635,9.704,0.838,14.015,2.396
	c-2.517,1.796-6.348,0.119-8.863-0.48l2.996,2.755c8.742-1.198,16.648-4.671,26.352-3.713c-1.321,0.719-3.114,0.48-4.436,1.198
	c7.429,0.719,14.375-3.114,21.923-1.437c-0.958,0.36-2.634,0.239-3.712,0.958l0.479,0.479c5.868-0.479,11.497-2.995,17.487-1.677
	c0,0.358-2.037,0.24-2.874,0.959l0.479,0.478c3.233-0.358,6.707,0,9.585-1.197c-1.321-1.558-4.197-0.839-5.632-2.156
	c2.395,0.359,4.91,0,7.306,1.199l0.363-0.96c2.033,0.359,4.189-0.478,5.387,1.917c1.077,0.239,2.514-0.24,1.916-1.198
	c1.679-0.958,3.593-3.233,5.513-2.275c-0.84,1.317-3.716,1.676-3.479,3.233c5.394,1.317,11.024,2.396,16.773,2.994l-4.433,0.719
	l-13.057-2.516c-2.634,0.36,0,1.796-0.839,3.235c6.349,0.958,13.057-0.719,19.286-0.481c4.433-1.556,9.703-1.317,14.252-0.238
	l-1.915,0.958c3.355,0.479,6.708-0.72,10.063-1.197v2.993c-7.067-1.796-15.452,0.239-22.641-1.796
	c-9.222,2.995-22.521-2.874-27.91,8.146c-0.718,0.119-0.358-0.839-0.479-1.199c1.916-2.156,5.03-3.592,6.229-5.748
	c-2.515-2.755-3.592,3.114-6.229,0c-0.476-0.6,0-1.559-0.476-2.157c-1.801,0.958-2.397,5.151-4.197,4.672
	c2.278-1.318,0.721-3.595,2.278-5.392c-4.313-2.515-8.864,0.6-13.654-0.719c-6.829,0-15.333,1.078-22.402,0
	c-8.983,2.875-18.924-1.078-27.308,3.353c0.357,1.797,1.196,3.593,1.196,5.271c-3.353-0.717-0.839-8.144-6.589-5.509
	c-0.6,0.598-0.838,1.316-1.555,1.796c-0.599,0.238-0.84-0.48-1.2-0.72c-0.478,1.559-2.037-0.119-2.754,0.239
	c-2.515-3.473-8.264-1.675-12.216-2.755c-10.544,0.601-20.728,0-31.387-0.478c-4.55-1.079-9.94,0-14.973,0l-11.62-1.199
	l-0.956,1.917c-1.796-0.359-4.673-4.071-5.631-0.24c-1.079-0.958-4.193,0.122-3.473-2.515c0.12-0.358-0.357-0.478-0.479-0.718
	c-4.552-0.599-6.589,5.51-10.662,5.151c1.557-1.438,3.954-2.995,5.153-4.911c-7.907-3.835-17.971-0.601-26.354-3.714
	c-10.903-0.239-21.441,0.838-31.744-0.959c-3.831,1.319-7.906,2.157-11.618,3.954c-1.196,2.516-0.601,5.749-1.438,8.384
	c-0.479,0-0.839-0.598-1.198-0.957c-0.238-2.517,2.277-6.469-0.839-7.667c-1.676,3.952-4.671,0.24-7.305,1.677
	c-2.037-0.479-3.476-0.839-4.912-1.917c-5.39-0.599-10.062,1.798-15.332,1.917c-8.625-2.395-15.332,3.473-23.836,1.797
	c-7.666,3.232-15.812-1.319-23.479,1.917l1.199,6.707c-3.833-1.077,0-9.463-6.588-7.187c-2.037,2.637-4.312-0.718-6.469,0
	c-2.156-3.233-6.347-2.755-9.821-3.712c-6.588,0.838-11.979-1.318-17.967-1.916c-5.393,1.076-10.183-0.839-15.334-1.199
	c-4.432,1.796-10.661,0-14.254,3.354c-1.077-0.239-2.754-0.6-3.713,0.24c0.36,1.557,1.557,3.714,0,5.03
	c-1.318-3.232-1.557-7.186-4.912-9.461c-6.466-1.318-14.732,0.718-21.441-1.678c-8.023,2.277-15.571-1.197-23.595,0.719
	c-2.996,0.24-6.829-1.676-8.866,0.72c-1.316,0.958-2.276-0.72-3.234-0.48c-2.635,1.318-2.993,4.312-4.432,6.468
	c-1.557-0.479-0.478-2.515,0-3.474c1.079-1.318-0.837-0.958-1.318-1.676c-3.472,0.478-3.593,3.954-5.15,6.348
	c-1.198-0.24-0.718-1.917-0.478-2.755c0.478-0.478,0.478-1.197,0.718-1.677l-0.48-0.478c-2.993-0.122-6.348,1.318-9.103-0.241
	l0.24-0.479l10.422-0.241c0.359-0.359,0.119-1.077,0.238-1.556c-4.551-0.48-10.181,0.118-14.612-1.438
	c-5.033,0.599-10.184,0.958-14.973-0.24c-5.152,1.678-11.142,1.079-16.291,0.479c-4.074,0.719-8.266,1.438-12.338,2.277
	c-0.479,2.756,1.077,5.389,1.199,8.264l-1.199-0.238l-1.916-7.548c-2.516-1.198-5.391,2.756-7.906,0
	c-2.754,1.438-4.432,4.792-6.947,7.068c-0.839,0-0.48-1.317-0.24-1.677l5.15-6.228c-7.426-1.318-15.332,2.635-23.117,0.598
	c-8.504,2.156-18.088-0.479-26.353,2.156C7.907,18.207,4.193,15.452,0,16.769v-1.916c2.037,1.197,3.114-1.318,4.911,0
	c9.463-0.599,19.166,0.119,28.388-1.798c7.427,2.156,14.494-2.035,22.399-0.238c2.155-1.558,6.109-0.838,6.948-3.476
	c0.598,0.24,1.316,0.481,1.437-0.478c0.239-1.438,1.197,0.839,1.677-0.48l0.479,0.958l1.078-1.436
	c1.079,2.036,4.552,0.358,6.348,0.478c1.317-2.636,0.12-6.827,2.995-8.384l-1.319,8.625L86.962,11.38z"/>
</svg>
