<?xml version="1.0" encoding="utf-8"?>
<!-- Generator: Adobe Illustrator 16.0.3, SVG Export Plug-In . SVG Version: 6.00 Build 0)  -->
<!DOCTYPE svg PUBLIC "-//W3C//DTD SVG 1.1//EN" "http://www.w3.org/Graphics/SVG/1.1/DTD/svg11.dtd">
<svg version="1.1" id="Layer_1" xmlns="http://www.w3.org/2000/svg" xmlns:xlink="http://www.w3.org/1999/xlink" x="0px" y="0px"
	 width="26px" height="91.931px" viewBox="0 0 26 91.931" enable-background="new 0 0 26 91.931" xml:space="preserve">
<path fill="#FFFFFF" d="M22.398,4.68c0.134-1.292,0.719-2.932,1.026-3.727h0.306c0.274,0,0.498-0.215,0.498-0.477
	C24.229,0.215,24.005,0,23.73,0H9.68C9.405,0,9.181,0.214,9.181,0.477c0,0.263,0.224,0.477,0.499,0.477H9.8l0.042,3.714
	C3.391,4.583,0,4.057,0,4.057s3.881,5.842,5.296,6.403c1.415,0.562,18.657,0.485,19.084,0.095C24.809,10.163,26,4.68,26,4.68
	S24.615,4.68,22.398,4.68z M13.607,0.982h1.701v1.88h-1.701V0.982z M10.951,4.677V0.982h1.702V4.68c-0.35,0-0.701,0-1.056,0
	C11.379,4.68,11.165,4.679,10.951,4.677z"/>
<g>
	<path fill="#232626" d="M8.909,42.677c0-0.919,0.279-1.648,0.837-2.189s1.328-0.812,2.306-0.812c0.748,0,1.321,0.175,1.722,0.522
		c0.398,0.348,0.599,0.839,0.599,1.475c0,0.945-0.272,1.676-0.817,2.191c-0.546,0.515-1.292,0.771-2.237,0.771
		c-0.756,0-1.346-0.165-1.771-0.495C9.122,43.808,8.909,43.322,8.909,42.677z M14.591,37.665h-4.227l2.011-12.189h5.488
		L14.591,37.665z"/>
</g>
<polygon points="22.125,67.46 13.25,58.585 4.375,67.46 6.45,67.46 6.45,77.026 11.06,77.026 11.06,71.552 15.439,71.552 
	15.439,77.026 20.051,77.026 20.051,67.46 "/>
</svg>
