<?xml version="1.0" encoding="utf-8"?>
<!-- Generator: Adobe Illustrator 16.0.0, SVG Export Plug-In . SVG Version: 6.00 Build 0)  -->
<!DOCTYPE svg PUBLIC "-//W3C//DTD SVG 1.1//EN" "http://www.w3.org/Graphics/SVG/1.1/DTD/svg11.dtd">
<svg version="1.1" id="Layer_1" xmlns="http://www.w3.org/2000/svg" xmlns:xlink="http://www.w3.org/1999/xlink" x="0px" y="0px"
	 width="26px" height="121.133px" viewBox="0 0 26 121.133" enable-background="new 0 0 26 121.133" xml:space="preserve">
<path fill="#FFFFFF" d="M22.398,4.68c0.134-1.292,0.719-2.933,1.024-3.728h0.308c0.272,0,0.498-0.216,0.498-0.478S24.005,0,23.73,0
	H9.68C9.405,0,9.181,0.214,9.181,0.477S9.405,0.954,9.68,0.954H9.8l0.042,3.714C3.391,4.583,0,4.057,0,4.057
	s3.881,5.842,5.296,6.402c1.415,0.562,18.657,0.484,19.084,0.096C24.809,10.163,26,4.68,26,4.68S24.615,4.68,22.398,4.68z
	 M13.607,0.982h1.701v1.88h-1.701V0.982z M10.951,4.677V0.982h1.702V4.68c-0.35,0-0.701,0-1.056,0
	C11.379,4.68,11.165,4.679,10.951,4.677z"/>
<polygon fill="#232626" points="22.125,67.46 13.25,58.585 4.375,67.46 6.45,67.46 6.45,77.026 11.06,77.026 11.06,71.552 
	15.439,71.552 15.439,77.026 20.051,77.026 20.051,67.46 "/>
<g>
	<path fill="#232626" d="M18.262,34.71c0,1.424-0.574,2.715-1.496,3.663l1.705,1.707c1.359-1.386,2.201-3.28,2.201-5.37
		c0-2.16-0.9-4.111-2.34-5.506l-1.709,1.708C17.627,31.871,18.262,33.215,18.262,34.71z"/>
	<path fill="#232626" d="M7.738,34.71c0-1.496,0.635-2.84,1.64-3.798l-1.709-1.709c-1.441,1.396-2.342,3.347-2.342,5.507
		c0,2.09,0.842,3.984,2.202,5.37l1.707-1.707C8.312,37.426,7.738,36.135,7.738,34.71z"/>
	<path fill="#232626" d="M3.678,34.71c0-2.615,1.085-4.979,2.826-6.672L4.8,26.334c-2.177,2.131-3.533,5.097-3.533,8.376
		c0,3.209,1.297,6.119,3.392,8.238l1.704-1.703C4.705,39.562,3.678,37.255,3.678,34.71z"/>
	<path fill="#232626" d="M22.322,34.71c0,2.544-1.027,4.852-2.686,6.536l1.704,1.702c2.095-2.119,3.392-5.029,3.392-8.238
		c0-3.279-1.355-6.245-3.533-8.376l-1.703,1.704C21.236,29.732,22.322,32.095,22.322,34.71z"/>
</g>
<circle fill="#232626" cx="13" cy="34.71" r="3.144"/>
<path fill="#232626" d="M5.5,95.999v19.002h12.498l2.502-2.502v-16.5H5.5z M15.875,110.146h-8v-1.332h8V110.146z M17.875,107.103
	h-10v-1.248h10V107.103z M17.875,104.103h-10v-1.248h10V104.103z M17.875,101.103h-10v-1.248h10V101.103z"/>
</svg>
