<?xml version="1.0" encoding="utf-8"?>
<!-- Generator: Adobe Illustrator 16.0.3, SVG Export Plug-In . SVG Version: 6.00 Build 0)  -->
<!DOCTYPE svg PUBLIC "-//W3C//DTD SVG 1.1//EN" "http://www.w3.org/Graphics/SVG/1.1/DTD/svg11.dtd">
<svg version="1.1" id="Layer_1" xmlns="http://www.w3.org/2000/svg" xmlns:xlink="http://www.w3.org/1999/xlink" x="0px" y="0px"
	 width="26px" height="45.861px" viewBox="0 0 26 45.861" enable-background="new 0 0 26 45.861" xml:space="preserve">
<path fill="#FFFFFF" d="M22.399,4.68c0.133-1.292,0.718-2.931,1.026-3.726h0.306c0.274,0,0.498-0.215,0.498-0.477S24.005,0,23.731,0
	H9.68C9.405,0,9.181,0.214,9.181,0.477S9.405,0.954,9.68,0.954h0.12l0.042,3.714C3.391,4.583,0,4.057,0,4.057
	s3.881,5.842,5.296,6.404s18.657,0.485,19.084,0.094C24.808,10.163,26,4.68,26,4.68S24.615,4.68,22.399,4.68z M13.607,0.982h1.702
	v1.88h-1.702V0.982z M10.951,4.678V0.982h1.702V4.68c-0.35,0-0.701,0-1.056,0C11.379,4.68,11.165,4.679,10.951,4.678z"/>
<g>
	<path fill="#232626" d="M8.909,42.677c0-0.919,0.279-1.649,0.837-2.19c0.558-0.541,1.328-0.812,2.306-0.812
		c0.748,0,1.321,0.174,1.721,0.522c0.399,0.348,0.599,0.839,0.599,1.475c0,0.945-0.273,1.675-0.818,2.191
		c-0.545,0.515-1.291,0.772-2.236,0.772c-0.756,0-1.346-0.165-1.771-0.496S8.909,43.322,8.909,42.677z M14.591,37.665h-4.227
		l2.011-12.19h5.489L14.591,37.665z"/>
</g>
</svg>
