<?xml version="1.0" encoding="utf-8"?>
<!-- Generator: Adobe Illustrator 16.0.3, SVG Export Plug-In . SVG Version: 6.00 Build 0)  -->
<!DOCTYPE svg PUBLIC "-//W3C//DTD SVG 1.1//EN" "http://www.w3.org/Graphics/SVG/1.1/DTD/svg11.dtd">
<svg version="1.1" id="Layer_1" xmlns="http://www.w3.org/2000/svg" xmlns:xlink="http://www.w3.org/1999/xlink" x="0px" y="0px"
	 width="12px" height="10.001px" viewBox="0 0 12 10.001" enable-background="new 0 0 12 10.001" xml:space="preserve">
<g>
	<path fill="#747368" d="M0,8.002V1.999c0-0.272,0.053-0.533,0.159-0.778c0.106-0.245,0.25-0.458,0.427-0.635
		s0.389-0.321,0.635-0.427S1.725,0,1.999,0h3.79C5.779,0.06,5.771,0.121,5.762,0.18C5.754,0.238,5.749,0.301,5.749,0.371v0.573
		c0,0.1,0.013,0.204,0.04,0.313h-3.79c-0.204,0-0.379,0.072-0.523,0.218C1.33,1.621,1.256,1.795,1.256,1.999v6.004
		c0,0.204,0.073,0.378,0.219,0.524c0.145,0.145,0.32,0.218,0.523,0.218h7c0.203,0,0.379-0.073,0.527-0.218
		c0.148-0.146,0.222-0.32,0.222-0.524V5.789c0.178,0.135,0.373,0.241,0.586,0.318c0.213,0.079,0.436,0.122,0.67,0.131v1.764
		c0,0.273-0.054,0.53-0.163,0.771c-0.108,0.242-0.253,0.453-0.436,0.635c-0.182,0.182-0.393,0.326-0.631,0.433
		c-0.239,0.106-0.497,0.16-0.775,0.16h-7c-0.273,0-0.532-0.054-0.778-0.16C0.975,9.735,0.763,9.591,0.586,9.409
		S0.265,9.015,0.159,8.773C0.053,8.533,0,8.275,0,8.002z M4.509,6.603C4.507,6.493,4.542,6.405,4.617,6.335L9.63,1.309H7.879
		c-0.109,0-0.198-0.036-0.268-0.107S7.507,1.04,7.507,0.931V0.371c-0.008-0.1,0.025-0.187,0.101-0.26C7.685,0.037,7.774,0,7.879,0
		h3.75c0.1,0,0.187,0.037,0.26,0.113C11.963,0.189,12,0.275,12,0.371v0.561v3.19c0,0.109-0.037,0.2-0.113,0.274
		c-0.076,0.074-0.162,0.106-0.257,0.098h-0.561c-0.109,0-0.199-0.036-0.27-0.108c-0.071-0.071-0.107-0.159-0.107-0.264V2.377
		L5.665,7.39c-0.07,0.07-0.158,0.104-0.264,0.104S5.204,7.459,5.131,7.39L4.617,6.869C4.547,6.8,4.511,6.71,4.509,6.603z"/>
</g>
</svg>
