<?xml version="1.0" encoding="utf-8"?>
<!-- Generator: Adobe Illustrator 16.0.3, SVG Export Plug-In . SVG Version: 6.00 Build 0)  -->
<!DOCTYPE svg PUBLIC "-//W3C//DTD SVG 1.1//EN" "http://www.w3.org/Graphics/SVG/1.1/DTD/svg11.dtd">
<svg version="1.1" id="Layer_1" xmlns="http://www.w3.org/2000/svg" xmlns:xlink="http://www.w3.org/1999/xlink" x="0px" y="0px"
	 width="44.995px" height="196.582px" viewBox="0 0 44.995 196.582" enable-background="new 0 0 44.995 196.582"
	 xml:space="preserve">
<g>
	<path fill="#FFFFFF" d="M0,32.788V4.712c0-0.635,0.126-1.245,0.378-1.831C0.63,2.295,0.964,1.794,1.379,1.379
		s0.907-0.749,1.477-1.001C3.426,0.126,4.02,0,4.639,0h28.149c1.302,0,2.413,0.46,3.333,1.379C37.04,2.299,37.5,3.41,37.5,4.712
		v28.076c0,0.667-0.126,1.286-0.378,1.855c-0.252,0.57-0.586,1.062-1.001,1.477s-0.916,0.749-1.501,1.001
		c-0.586,0.252-1.196,0.378-1.831,0.378H4.639c-0.635,0-1.233-0.126-1.794-0.378c-0.562-0.252-1.05-0.586-1.465-1.001
		s-0.749-0.907-1.001-1.477C0.126,34.074,0,33.456,0,32.788z M4.907,23.853c1.302,1.807,2.917,3.182,4.846,4.126
		c1.929,0.944,4.041,1.416,6.335,1.416c1.562,0,3.064-0.215,4.504-0.647c1.44-0.431,2.742-1.029,3.906-1.794
		c1.164-0.765,2.173-1.68,3.027-2.747c0.854-1.066,1.477-2.234,1.868-3.503c1.334-0.098,2.384-0.562,3.149-1.392
		c0.228-0.228,0.26-0.496,0.098-0.806c-0.13-0.293-0.375-0.415-0.732-0.366h-0.098c0.374-0.374,0.618-0.74,0.732-1.099
		c0.13-0.325,0.065-0.586-0.195-0.781c-0.228-0.228-0.497-0.244-0.806-0.049c-0.13,0.065-0.371,0.146-0.72,0.244
		c-0.35,0.098-0.72,0.146-1.111,0.146c-0.065,0-0.126-0.008-0.183-0.024c-0.057-0.016-0.118-0.024-0.183-0.024
		c0-0.032-0.008-0.065-0.024-0.098c-0.017-0.032-0.024-0.065-0.024-0.098c-0.261-0.993-0.725-1.892-1.392-2.698
		c-0.667-0.806-1.433-1.396-2.295-1.77c0.065-0.065,0.114-0.13,0.146-0.195c0.032-0.065,0.081-0.13,0.146-0.195
		c0.098-0.26,0.098-0.529,0-0.806c-0.033-0.098-0.134-0.228-0.305-0.391c-0.171-0.163-0.452-0.228-0.842-0.195
		c-0.033-0.065-0.082-0.13-0.146-0.195c-0.195-0.195-0.399-0.269-0.61-0.22c-0.407,0.065-0.806,0.171-1.196,0.317l-0.049-0.049
		c-0.228-0.13-0.48-0.114-0.757,0.049c-0.96,0.603-1.758,1.416-2.393,2.441s-1.188,2.124-1.66,3.296
		c-0.57-0.504-1.034-0.838-1.392-1.001c-0.993-0.569-2.043-1.086-3.149-1.55c-1.107-0.464-2.36-0.964-3.76-1.501
		c-0.228-0.065-0.423-0.032-0.586,0.098c-0.163,0.098-0.285,0.269-0.366,0.513c-0.033,0.439,0.037,0.916,0.208,1.428
		s0.484,1.021,0.94,1.526c-0.407,0.098-0.57,0.358-0.488,0.781c0.195,1.107,0.749,1.929,1.66,2.466l-0.317,0.293
		c-0.228,0.228-0.261,0.497-0.098,0.806c0.065,0.195,0.281,0.5,0.647,0.916s0.899,0.729,1.599,0.94
		c-0.098,0.195-0.146,0.375-0.146,0.537c0,0.163,0.016,0.277,0.049,0.342c0.098,0.537,0.415,0.944,0.952,1.221
		c-0.603,0.407-1.245,0.684-1.929,0.83s-1.375,0.191-2.075,0.134c-0.7-0.057-1.375-0.224-2.026-0.5
		c-0.651-0.276-1.221-0.651-1.709-1.123c-0.13-0.13-0.289-0.195-0.476-0.195c-0.188,0-0.346,0.065-0.476,0.195
		C4.63,23.193,4.598,23.511,4.907,23.853z"/>
</g>
<g>
	<path fill="#FFFFFF" d="M0,107.788V79.712c0-0.635,0.126-1.245,0.378-1.831c0.252-0.586,0.586-1.086,1.001-1.501
		s0.907-0.749,1.477-1.001C3.426,75.126,4.028,75,4.663,75h28.149c1.302,0,2.409,0.46,3.32,1.379
		c0.911,0.92,1.367,2.031,1.367,3.333v28.076c0,0.667-0.126,1.286-0.378,1.855c-0.252,0.57-0.586,1.062-1.001,1.477
		s-0.916,0.749-1.501,1.001c-0.586,0.252-1.188,0.378-1.807,0.378H20.947V96.802h4.199c0.195,0,0.37-0.065,0.525-0.195
		c0.154-0.13,0.232-0.301,0.232-0.513l0.293-4.102c0-0.228-0.065-0.423-0.195-0.586c-0.163-0.163-0.35-0.244-0.562-0.244h-4.492
		v-1.807c0-0.667,0.085-1.111,0.256-1.331s0.606-0.33,1.306-0.33c0.407,0,0.858,0.033,1.355,0.098
		c0.496,0.065,0.972,0.155,1.428,0.269c0.098,0,0.208-0.012,0.33-0.037s0.215-0.069,0.281-0.134
		c0.163-0.098,0.276-0.276,0.342-0.537l0.562-3.955c0.065-0.472-0.139-0.757-0.61-0.854c-1.465-0.407-2.995-0.602-4.59-0.586
		c-4.899,0-7.349,2.385-7.349,7.153v2.051h-2.515c-0.537,0-0.798,0.261-0.781,0.781v4.102c0,0.195,0.073,0.371,0.22,0.525
		c0.146,0.155,0.333,0.232,0.562,0.232h2.515V112.5H4.663c-0.635,0-1.237-0.126-1.807-0.378c-0.57-0.252-1.062-0.586-1.477-1.001
		s-0.749-0.907-1.001-1.477C0.126,109.074,0,108.456,0,107.788z"/>
</g>
<g>
	<path fill="#FFFFFF" d="M0,193.774V171.68c0.163,0.163,0.33,0.305,0.5,0.427s0.337,0.249,0.5,0.378
		c2.1,1.562,4.183,3.121,6.25,4.675c2.067,1.555,4.118,3.146,6.152,4.773c0.635,0.505,1.302,1.013,2.002,1.526
		c0.7,0.513,1.424,0.977,2.173,1.392c0.749,0.415,1.534,0.749,2.356,1.001c0.822,0.252,1.664,0.378,2.527,0.378
		c0.895,0,1.75-0.126,2.563-0.378c0.813-0.252,1.595-0.578,2.344-0.977c0.749-0.398,1.473-0.854,2.173-1.367
		c0.7-0.513,1.383-1.038,2.051-1.575c2.034-1.627,4.085-3.218,6.152-4.773c2.067-1.554,4.15-3.113,6.25-4.675
		c0.163-0.13,0.33-0.256,0.5-0.378s0.337-0.264,0.5-0.427v22.095c0,0.765-0.273,1.424-0.818,1.978
		c-0.545,0.554-1.201,0.83-1.965,0.83H2.808c-0.765,0-1.424-0.276-1.978-0.83C0.276,195.199,0,194.54,0,193.774z M0.049,161.572
		c0-0.667,0.293-1.249,0.879-1.746c0.586-0.496,1.212-0.745,1.88-0.745h39.404c0.667,0,1.29,0.249,1.868,0.745
		c0.578,0.497,0.867,1.079,0.867,1.746c0,0.505-0.151,1.066-0.452,1.685c-0.301,0.619-0.667,1.229-1.099,1.831
		c-0.432,0.603-0.896,1.152-1.392,1.648c-0.497,0.497-0.932,0.891-1.306,1.184c-2.002,1.498-3.967,2.983-5.896,4.456
		c-1.929,1.473-3.878,2.958-5.847,4.456c-0.407,0.293-0.875,0.659-1.404,1.099c-0.529,0.439-1.079,0.859-1.648,1.257
		c-0.57,0.399-1.147,0.741-1.733,1.025c-0.586,0.285-1.123,0.427-1.611,0.427H22.51h-0.049c-0.505,0-1.05-0.142-1.636-0.427
		c-0.586-0.285-1.16-0.626-1.721-1.025c-0.562-0.398-1.111-0.818-1.648-1.257s-1.009-0.806-1.416-1.099
		c-1.97-1.497-3.918-2.979-5.847-4.443s-3.894-2.954-5.896-4.468c-0.375-0.293-0.81-0.688-1.306-1.184
		c-0.497-0.496-0.96-1.045-1.392-1.648c-0.432-0.602-0.798-1.212-1.099-1.831C0.199,162.639,0.049,162.077,0.049,161.572z"/>
</g>
</svg>
